
<svg width="1200" height="300" viewBox="0 0 1200 300" xmlns="http://www.w3.org/2000/svg">
    <rect width="100%" height="100%" fill="black"/>
    <circle cx="1015" cy="160" r="1.9185587073856338" fill="white" opacity="0.9029627818283638"/><circle cx="1129" cy="156" r="1.50275187968808" fill="white" opacity="0.6969820776919123"/><circle cx="793" cy="43" r="2.645846551275509" fill="white" opacity="0.8574852068149506"/><circle cx="306" cy="88" r="2.5704015964480784" fill="white" opacity="0.6177911937821114"/><circle cx="1154" cy="193" r="2.908191029797859" fill="white" opacity="0.878519759126683"/><circle cx="269" cy="44" r="1.7064006092592496" fill="white" opacity="0.7780309693608943"/><circle cx="1007" cy="176" r="2.7864146406245354" fill="white" opacity="0.987420167758378"/><circle cx="717" cy="232" r="1.4278123026966025" fill="white" opacity="0.70296155635957"/><circle cx="1022" cy="63" r="2.838656418774719" fill="white" opacity="0.762373223170238"/><circle cx="936" cy="7" r="1.9927121864666584" fill="white" opacity="0.8482910271004046"/><circle cx="796" cy="18" r="2.7056478939664483" fill="white" opacity="0.8836772725822557"/><circle cx="679" cy="70" r="2.778806864530736" fill="white" opacity="0.6106935623350195"/><circle cx="267" cy="100" r="2.977521622239977" fill="white" opacity="0.9593646430889294"/><circle cx="741" cy="130" r="1.0072025433458498" fill="white" opacity="0.7900944792329279"/><circle cx="1191" cy="266" r="1.8068958071069061" fill="white" opacity="0.7180032116312314"/><circle cx="828" cy="293" r="1.810413743645206" fill="white" opacity="0.7344425402213945"/><circle cx="219" cy="108" r="2.505018082902646" fill="white" opacity="0.7373392707919569"/><circle cx="919" cy="248" r="1.734094873916475" fill="white" opacity="0.7560258740249698"/><circle cx="1114" cy="113" r="1.4799666665917273" fill="white" opacity="0.9903765994711944"/><circle cx="1044" cy="176" r="2.0714586407961484" fill="white" opacity="0.9199670723031386"/><circle cx="1027" cy="246" r="1.6747777928116618" fill="white" opacity="0.9095751135157165"/><circle cx="19" cy="65" r="2.5144585820540675" fill="white" opacity="0.6761009216708829"/><circle cx="275" cy="277" r="2.204839251529182" fill="white" opacity="0.8385102450658177"/><circle cx="775" cy="55" r="2.455243207529536" fill="white" opacity="0.8800028984594062"/><circle cx="476" cy="238" r="2.0830790611207433" fill="white" opacity="0.7624760710452152"/><circle cx="479" cy="282" r="2.016870036189756" fill="white" opacity="0.80634524291183"/><circle cx="496" cy="264" r="2.4361520217635544" fill="white" opacity="0.6396670281678051"/><circle cx="691" cy="12" r="1.899245213159196" fill="white" opacity="0.7186270583099977"/><circle cx="1050" cy="20" r="1.7469240542240272" fill="white" opacity="0.6759402755591588"/><circle cx="802" cy="297" r="2.0210394238791016" fill="white" opacity="0.7414225363818965"/><circle cx="950" cy="123" r="1.6326840586946636" fill="white" opacity="0.9010150291893471"/><circle cx="385" cy="244" r="2.3731198456860154" fill="white" opacity="0.9796035855411482"/><circle cx="159" cy="54" r="2.671250189208812" fill="white" opacity="0.7173900284868355"/><circle cx="22" cy="173" r="1.4176716579524633" fill="white" opacity="0.9949013738332206"/><circle cx="749" cy="124" r="1.8352959070231445" fill="white" opacity="0.686256460731024"/><circle cx="463" cy="5" r="2.7508201747096037" fill="white" opacity="0.7937083361300417"/><circle cx="143" cy="124" r="1.7466796736311903" fill="white" opacity="0.6629218767642707"/><circle cx="616" cy="197" r="2.5444433924638385" fill="white" opacity="0.9643628903143209"/><circle cx="730" cy="158" r="1.842377288222715" fill="white" opacity="0.8010730986426393"/><circle cx="313" cy="106" r="2.464926414195551" fill="white" opacity="0.7626666729926461"/><circle cx="137" cy="7" r="2.8970615065851995" fill="white" opacity="0.9624053282701647"/><circle cx="905" cy="156" r="1.345966136346301" fill="white" opacity="0.803281099394594"/><circle cx="879" cy="223" r="2.280204607015481" fill="white" opacity="0.6914616379643591"/><circle cx="585" cy="51" r="1.9423319491705273" fill="white" opacity="0.8737992878395322"/><circle cx="734" cy="16" r="2.820537020827343" fill="white" opacity="0.9240221809778535"/><circle cx="1114" cy="116" r="1.2654568525687087" fill="white" opacity="0.8282017823962846"/><circle cx="461" cy="65" r="2.1796294966461076" fill="white" opacity="0.6312070632518745"/><circle cx="177" cy="17" r="2.6788245503016235" fill="white" opacity="0.8738392342133159"/><circle cx="4" cy="31" r="2.3497538681166117" fill="white" opacity="0.6685742705107465"/><circle cx="921" cy="166" r="1.0648683274624478" fill="white" opacity="0.6628625414076796"/><circle cx="194" cy="82" r="1.0567440468462617" fill="white" opacity="0.9065754295923282"/><circle cx="281" cy="154" r="1.5705844603501624" fill="white" opacity="0.662117158814451"/><circle cx="410" cy="249" r="1.5935078459044953" fill="white" opacity="0.6031196493849404"/><circle cx="470" cy="22" r="2.331518014448495" fill="white" opacity="0.7018845934309815"/><circle cx="1127" cy="44" r="1.0356233030510897" fill="white" opacity="0.7298954288658543"/><circle cx="523" cy="255" r="1.7195369445023128" fill="white" opacity="0.7450723058704342"/><circle cx="1025" cy="171" r="2.0917725774003184" fill="white" opacity="0.921888531779047"/><circle cx="322" cy="164" r="2.065556195329564" fill="white" opacity="0.8315220317992487"/><circle cx="378" cy="188" r="2.1762736941973806" fill="white" opacity="0.7244613551546257"/><circle cx="996" cy="237" r="2.4138820622066106" fill="white" opacity="0.6115813565818335"/><circle cx="327" cy="151" r="2.3818679007572623" fill="white" opacity="0.6178817815556562"/><circle cx="1122" cy="117" r="1.980201814282989" fill="white" opacity="0.8677198893549376"/><circle cx="962" cy="63" r="2.2478447812325375" fill="white" opacity="0.9537584779145095"/><circle cx="710" cy="184" r="2.1623072372258485" fill="white" opacity="0.9510320627155493"/><circle cx="124" cy="203" r="1.5067715612138428" fill="white" opacity="0.7975014526195229"/><circle cx="831" cy="62" r="1.1705162459015712" fill="white" opacity="0.76315788429935"/><circle cx="1069" cy="248" r="2.739746854800506" fill="white" opacity="0.8607573151846211"/><circle cx="322" cy="248" r="2.0113654013491487" fill="white" opacity="0.9401556753472531"/><circle cx="330" cy="253" r="2.0688745158758697" fill="white" opacity="0.8776889792893583"/><circle cx="72" cy="32" r="1.4659668162640855" fill="white" opacity="0.8570414108482662"/><circle cx="361" cy="212" r="1.558864377160724" fill="white" opacity="0.649382482911148"/><circle cx="1024" cy="266" r="1.3847191096603766" fill="white" opacity="0.7896168298447453"/><circle cx="252" cy="246" r="1.4383497089428499" fill="white" opacity="0.9184617237766305"/><circle cx="261" cy="12" r="2.7673677364158484" fill="white" opacity="0.9501360803127474"/><circle cx="36" cy="28" r="1.4260526056507248" fill="white" opacity="0.8497700660752174"/><circle cx="654" cy="2" r="2.3634809915852903" fill="white" opacity="0.9949969299725001"/><circle cx="146" cy="103" r="2.570620770017292" fill="white" opacity="0.949771448755962"/><circle cx="648" cy="6" r="2.0719678384282982" fill="white" opacity="0.7821599175160325"/><circle cx="960" cy="235" r="2.3887152701789667" fill="white" opacity="0.7856242917487308"/><circle cx="751" cy="60" r="1.5643236169842463" fill="white" opacity="0.8504963435809476"/><circle cx="291" cy="160" r="1.6607333320638098" fill="white" opacity="0.7052131723038848"/><circle cx="1191" cy="55" r="1.054269046313105" fill="white" opacity="0.7810506444180085"/><circle cx="797" cy="148" r="2.580457494180898" fill="white" opacity="0.673619226104727"/><circle cx="820" cy="218" r="1.6431213585827085" fill="white" opacity="0.6560689439128741"/><circle cx="731" cy="154" r="1.3149642330521523" fill="white" opacity="0.7155438178007041"/><circle cx="717" cy="90" r="2.1323829879585374" fill="white" opacity="0.752273005816273"/><circle cx="63" cy="173" r="2.1016387617956935" fill="white" opacity="0.9269362279390345"/><circle cx="366" cy="42" r="2.3257855102603804" fill="white" opacity="0.710193448437569"/><circle cx="278" cy="124" r="1.4923346818804666" fill="white" opacity="0.7685175528387926"/><circle cx="496" cy="137" r="1.0873480357441228" fill="white" opacity="0.6176220681239412"/><circle cx="754" cy="104" r="1.622344291209511" fill="white" opacity="0.6261828383034123"/><circle cx="500" cy="67" r="1.7865770325619859" fill="white" opacity="0.6929551225919397"/><circle cx="423" cy="46" r="1.980143195115396" fill="white" opacity="0.6666706805826563"/><circle cx="378" cy="58" r="2.920049542254233" fill="white" opacity="0.8643050467380646"/><circle cx="186" cy="192" r="1.4588692401140828" fill="white" opacity="0.8597237942121267"/><circle cx="577" cy="140" r="1.9611509909440639" fill="white" opacity="0.6796607690867156"/><circle cx="661" cy="80" r="2.8949233053201064" fill="white" opacity="0.6586746148076809"/><circle cx="133" cy="74" r="1.6729845997440838" fill="white" opacity="0.8065443024222401"/><circle cx="1004" cy="135" r="2.233670498340476" fill="white" opacity="0.8115206313738644"/><circle cx="566" cy="31" r="2.8412608584768826" fill="white" opacity="0.8628738363746526"/>
</svg>
